<?xml version="1.0" encoding="utf-8"?>
<!-- Generator: Adobe Illustrator 25.0.0, SVG Export Plug-In . SVG Version: 6.00 Build 0)  -->
<svg version="1.1" id="Layer_1" xmlns="http://www.w3.org/2000/svg" xmlns:xlink="http://www.w3.org/1999/xlink" x="0px" y="0px"
	 viewBox="0 0 916 1107" style="enable-background:new 0 0 916 1107;" xml:space="preserve">
<path d="M778.9,0C703.4,154.3,514.1,8.1,341,8.1c-374.1,0-444.9,475.8-84.8,442.1C-137.6,591.8-74.9,1107,426.9,1107
	c544.8,0,551.8-663.7,127.8-663.7c-128.9,0-214.9,60.3-214.9,164.8c0,102.1,82.5,155.5,163.8,155.5c81.3,0,160.3-54.5,160.3-130
	c-37.2,0-54.6-30.2-54.6-60.3c0-27.8,16.3-55.7,48.8-55.7c39.5,0,62.7,40.6,62.7,104.4c0,141.6-115,199.6-214.9,199.6
	c-120.8,0-231.2-84.7-231.2-211.2c0-45.3,13.9-90.5,75.5-141.6c31.4-25.5,89.4-70.8,30.2-70.8c-122,0-162.6-7-162.6-30.2
	c0-17.4,20.9-31.3,63.9-31.3c98.7,0,273,70.8,401.9,70.8c116.2,0,232.3-58,232.3-204.2C916,45.3,778.9,0,778.9,0z"/>
</svg>
